<svg width="32" height="24" viewBox="0 0 32 24" fill="none" xmlns="http://www.w3.org/2000/svg">
<path fill-rule="evenodd" clip-rule="evenodd" d="M24.0381 19.1095C24.3975 18.6903 25.0289 18.6418 25.4482 19.0011L28.3701 21.505C28.7894 21.8643 28.8387 22.4958 28.4795 22.9152L28.0918 23.3673C27.7324 23.7867 27.101 23.8351 26.6816 23.4757L23.7588 20.9718C23.3395 20.6124 23.2911 19.981 23.6504 19.5617L24.0381 19.1095ZM15.5869 3.60267C16.2321 3.0321 17.2494 3.49051 17.25 4.3517V19.8283C17.25 20.6901 16.2323 21.1486 15.5869 20.5773L11.083 16.59H8V23.3497H5V16.59H2C0.895431 16.59 0 15.6945 0 14.59V9.58998C0.000541656 8.48587 0.895765 7.58998 2 7.58998H11.083L15.5869 3.60267ZM11.5732 10.2667H3.96191C2.87862 10.2669 2.00044 11.1464 2 12.2296C2.00026 13.313 2.87851 14.1914 3.96191 14.1915H11.5732L15 17.3273V7.13099L11.5732 10.2667ZM20 7.35072C21.9998 9.85074 21.9999 13.8508 20 16.3507H19V7.35072H20ZM31 10.3507C31.5523 10.3507 32 10.7984 32 11.3507V12.3507C31.9997 12.9028 31.5521 13.3507 31 13.3507H26C25.4477 13.3507 25 12.902 25 12.3497V11.3497C25.0003 10.7977 25.4479 10.3507 26 10.3507H31ZM26.4941 0.240367C26.9135 -0.118987 27.5449 -0.069642 27.9043 0.349742L28.292 0.80189C28.6511 1.22116 28.6026 1.85172 28.1836 2.21107L25.2607 4.71595C24.8414 5.0752 24.2099 5.02676 23.8506 4.60755L23.4629 4.15443C23.1039 3.73504 23.153 3.10448 23.5723 2.74525L26.4941 0.240367Z" fill="#842130"/>
</svg>
