<svg width="38" height="36" viewBox="0 0 38 36" fill="none" xmlns="http://www.w3.org/2000/svg">
<path d="M19.5 0C21.9853 0 24 2.01472 24 4.5C24 6.64145 22.5038 8.43185 20.5 8.88672V13.1631C22.7603 13.6567 24.6115 15.2409 25.4746 17.3379L29.0576 16.2227C29.0196 15.9874 29 15.746 29 15.5C29 13.0147 31.0147 11 33.5 11C35.9853 11 38 13.0147 38 15.5C38 17.9853 35.9853 20 33.5 20C31.7904 20 30.3036 19.0466 29.542 17.6426L25.8906 18.7783C25.9605 19.1752 26 19.5831 26 20C26 21.7169 25.3803 23.2881 24.3545 24.5059L26.4482 27.4941C27.0635 27.1784 27.7609 27 28.5 27C30.9853 27 33 29.0147 33 31.5C33 33.9853 30.9853 36 28.5 36C26.0147 36 24 33.9853 24 31.5C24 30.2951 24.474 29.2013 25.2451 28.3936L23.2578 25.5547C22.078 26.4604 20.6023 27 19 27C17.9304 27 16.9174 26.759 16.0107 26.3301L13.4902 29.4199C13.8153 30.0422 14 30.7494 14 31.5C14 33.9853 11.9853 36 9.5 36C7.01472 36 5 33.9853 5 31.5C5 29.0147 7.01472 27 9.5 27C10.6785 27 11.7505 27.4539 12.5527 28.1953L14.7207 25.5381C13.0662 24.2578 12 22.2539 12 20C12 19.2915 12.105 18.6075 12.3008 17.9629L8.69824 17.1172C8.04841 18.8031 6.41495 20 4.5 20C2.01472 20 0 17.9853 0 15.5C0 13.0147 2.01472 11 4.5 11C6.98528 11 9 13.0147 9 15.5C9 15.549 8.99765 15.5978 8.99609 15.6465L12.9014 16.5635C14.1025 14.4365 16.3831 13 19 13V8.9707C16.7501 8.72189 15 6.81621 15 4.5C15 2.01472 17.0147 0 19.5 0ZM9.5 30C8.67157 30 8 30.6716 8 31.5C8 32.3284 8.67157 33 9.5 33C10.3284 33 11 32.3284 11 31.5C11 30.6716 10.3284 30 9.5 30ZM28.5 30C27.6716 30 27 30.6716 27 31.5C27 32.3284 27.6716 33 28.5 33C29.3284 33 30 32.3284 30 31.5C30 30.6716 29.3284 30 28.5 30ZM19 16C16.7909 16 15 17.7909 15 20C15 22.2091 16.7909 24 19 24C21.2091 24 23 22.2091 23 20C23 17.7909 21.2091 16 19 16ZM4.5 14C3.67157 14 3 14.6716 3 15.5C3 16.3284 3.67157 17 4.5 17C5.32843 17 6 16.3284 6 15.5C6 14.6716 5.32843 14 4.5 14ZM33.5 14C32.6716 14 32 14.6716 32 15.5C32 16.3284 32.6716 17 33.5 17C34.3284 17 35 16.3284 35 15.5C35 14.6716 34.3284 14 33.5 14ZM19.5 3C18.6716 3 18 3.67157 18 4.5C18 5.32843 18.6716 6 19.5 6C20.3284 6 21 5.32843 21 4.5C21 3.67157 20.3284 3 19.5 3Z" fill="#842130"/>
</svg>
